<svg xmlns="http://www.w3.org/2000/svg" viewBox="0 0 100 100">
  <circle cx="50" cy="50" r="48" fill="#0a0a0f"/>
  <g fill="#00ff88">
    <!-- Center circle -->
    <circle cx="50" cy="50" r="10"/>
    <!-- Top blade -->
    <path d="M50 8 A42 42 0 0 1 86.3 29 L62.5 42.5 A18 18 0 0 0 50 38 Z"/>
    <!-- Bottom left blade -->
    <path d="M13.7 29 A42 42 0 0 1 50 8 L50 38 A18 18 0 0 0 37.5 42.5 Z" transform="rotate(120 50 50)"/>
    <!-- Bottom right blade -->
    <path d="M13.7 29 A42 42 0 0 1 50 8 L50 38 A18 18 0 0 0 37.5 42.5 Z" transform="rotate(240 50 50)"/>
  </g>
</svg>
